<?xml version="1.0" standalone="no"?>
<!DOCTYPE svg PUBLIC "-//W3C//DTD SVG 20010904//EN"
 "http://www.w3.org/TR/2001/REC-SVG-20010904/DTD/svg10.dtd">
<svg version="1.0" xmlns="http://www.w3.org/2000/svg"
 width="720.000000pt" height="1280.000000pt" viewBox="0 0 720.000000 1280.000000"
 preserveAspectRatio="xMidYMid meet">

<g transform="translate(0.000000,1280.000000) scale(0.100000,-0.100000)"
fill="#000000" stroke="none">
<path d="M0 6400 l0 -6400 3600 0 3600 0 0 6400 0 6400 -3600 0 -3600 0 0
-6400z m3192 1490 c31 -58 79 -150 108 -205 29 -55 97 -182 152 -283 104 -193
121 -244 116 -342 l-3 -55 103 -3 102 -3 0 491 0 490 625 0 c344 0 625 -3 625
-6 0 -3 -28 -57 -62 -120 l-61 -114 -439 0 -440 0 3 -359 3 -359 -123 -131
-123 -131 -107 0 -108 0 -1 -247 c0 -137 -1 -254 -1 -260 -1 -10 -33 -13 -127
-13 l-126 0 3 260 4 260 -202 0 c-112 0 -203 3 -203 6 0 4 37 58 81 120 l82
113 121 3 121 3 3 58 c3 56 0 63 -103 263 -59 113 -108 204 -110 202 -1 -2
-73 -140 -160 -308 -440 -851 -554 -1060 -579 -1060 -11 0 -67 -3 -123 -7 -56
-3 -108 -3 -117 0 -12 5 0 34 63 149 42 79 146 274 231 433 318 603 591 1115
657 1233 41 74 32 80 115 -78z m1537 -887 c0 -5 -33 -60 -73 -123 l-72 -115
-282 -3 -282 -2 0 -460 0 -460 -125 0 -125 0 0 411 0 411 167 174 168 174 312
0 c172 0 313 -3 312 -7z m-2235 -2100 c25 -64 46 -120 46 -125 0 -22 -39 -5
-50 22 -11 28 -16 30 -61 30 -44 0 -51 -3 -59 -25 -10 -26 -36 -43 -47 -31 -6
6 49 169 74 219 7 15 22 27 32 27 15 0 29 -25 65 -117z m346 97 c0 -18 -7 -20
-60 -20 l-60 0 0 -35 0 -35 50 0 c43 0 50 -3 50 -20 0 -17 -7 -20 -50 -20
l-50 0 0 -50 c0 -43 -3 -50 -20 -50 -19 0 -20 7 -20 125 l0 125 80 0 c73 0 80
-2 80 -20z m433 9 c14 -6 30 -22 36 -35 10 -22 8 -24 -14 -24 -13 0 -28 7 -33
16 -13 24 -77 15 -77 -11 0 -12 10 -24 24 -30 87 -36 106 -50 109 -81 8 -80
-142 -104 -177 -28 -9 21 -8 24 11 24 11 0 26 -7 32 -16 14 -19 75 -22 86 -4
11 18 -6 50 -28 50 -9 0 -36 9 -59 20 -38 17 -43 23 -43 52 0 18 4 38 8 44 21
32 81 43 125 23z m357 -9 c0 -17 -7 -20 -40 -20 l-40 0 0 -100 c0 -93 -1 -100
-20 -100 -19 0 -20 7 -20 100 l0 100 -39 0 c-36 0 -59 18 -44 34 4 3 51 6 105
6 91 0 98 -1 98 -20z m160 -68 c0 -105 10 -125 60 -120 46 4 60 33 60 131 0
70 2 77 20 77 19 0 20 -7 20 -94 0 -84 -3 -98 -23 -121 -16 -20 -35 -28 -67
-31 -89 -9 -118 33 -119 169 -1 76 -1 77 24 77 25 0 25 -1 25 -88z m429 82
c70 -14 110 -105 77 -176 -22 -46 -42 -56 -130 -64 l-76 -7 0 127 0 126 49 0
c27 0 62 -3 80 -6z m271 -120 c0 -124 0 -125 -22 -122 -25 3 -24 -6 -20 163 2
78 4 85 22 85 19 0 20 -7 20 -126z m348 93 c20 -21 27 -38 30 -85 4 -54 2 -62
-25 -92 -22 -25 -39 -33 -74 -37 -50 -6 -101 14 -118 45 -33 64 -18 152 32
183 45 28 119 22 155 -14z"/>
<path d="M2411 4919 c-16 -46 -14 -49 19 -49 17 0 30 2 30 4 0 8 -31 76 -34
76 -2 0 -9 -14 -15 -31z"/>
<path d="M4132 4898 l3 -83 37 -3 c77 -6 119 88 63 143 -18 19 -35 25 -65 25
l-41 0 3 -82z"/>
<path d="M4696 4958 c-9 -12 -16 -42 -16 -65 0 -54 26 -83 73 -83 47 0 72 30
72 85 0 57 -25 85 -76 85 -28 0 -42 -6 -53 -22z"/>
</g>
</svg>
